#!OML:ASF F:\VICON\USERDATA\INSTALL\rory3\rory3.ASF
:FULLY-SPECIFIED
:DEGREES
155
root -1.04266 17.9779 -30.1175 5.85358 -3.98004 -3.36554
lowerback 4.37318 4.23425 0.0743321
upperback -0.492296 5.74264 2.89403
thorax -3.244 2.88689 2.52077
lowerneck -14.6495 -6.12009 -15.3989
upperneck 24.3526 -6.80002 8.21676
head 11.1542 -3.57123 4.61858
rclavicle -7.34012e-014 -1.19271e-014
rhumerus -34.6123 -14.5816 -75.0419
rradius 24.45
rwrist -8.39163
rhand -10.95 23.9968
rfingers 7.12502
rthumb 15.0687 -5.43479
lclavicle -7.34012e-014 -1.19271e-014
lhumerus -42.7468 20.393 72.5119
lradius 23.7121
lwrist -13.8268
lhand 1.21735 31.7775
lfingers 7.12502
lthumb 26.7559 59.9054
rfemur 23.3726 5.46121 25.2995
rtibia 4.77083e-014
rfoot -5.76429 -9.16531
rtoes 7.52484
lfemur -34.6226 -4.94405 -12.3249
ltibia 26.2544
lfoot -6.58855 6.62547
ltoes -4.88667
156
root -1.01863 17.9939 -29.9722 5.79182 -3.28551 -2.98978
lowerback 4.59925 4.02771 -0.224992
upperback -0.646772 5.45484 2.77744
thorax -3.53359 2.74935 2.56575
lowerneck -14.6406 -6.03428 -15.3173
upperneck 24.5017 -6.69914 8.18715
head 11.1893 -3.52449 4.61368
rclavicle -5.08889e-014 -2.38542e-014
rhumerus -34.9537 -14.5648 -75.0488
rradius 24.9046
rwrist -8.74501
rhand -10.7941 23.9377
rfingers 7.12502
rthumb 15.2189 -5.48258
lclavicle -5.08889e-014 -2.38542e-014
lhumerus -42.8178 20.5783 72.1993
lradius 23.5309
lwrist -14.0721
lhand 1.08205 31.5654
lfingers 7.12502
lthumb 26.6264 59.7131
rfemur 23.7669 4.78773 24.851
rtibia 1.90833e-014
rfoot -4.26201 -9.17839
rtoes 7.50872
lfemur -34.2843 -4.4746 -13.2693
ltibia 26.3858
lfoot -6.02592 5.48737
ltoes -4.85502
157
root -0.991426 18.0108 -29.8219 5.72263 -2.68838 -2.89698
lowerback 4.71233 3.86357 -0.264322
upperback -0.679335 5.23603 2.78102
thorax -3.62368 2.6416 2.60022
lowerneck -14.6428 -6.05332 -15.3668
upperneck 24.5328 -6.70866 8.16845
head 11.2048 -3.53598 4.61402
rclavicle -4.75095e-014 -1.11319e-014
rhumerus -35.1336 -14.5809 -75.0034
rradius 25.3588
rwrist -9.10001
rhand -10.6735 23.7217
rfingers 7.12502
rthumb 15.335 -5.68969
lclavicle -4.75095e-014 -1.11319e-014
lhumerus -42.6606 20.7865 72.1043
lradius 23.3645
lwrist -14.1787
lhand 1.00601 31.1918
lfingers 7.12502
lthumb 26.5536 59.3505
rfemur 21.7681 4.17496 24.6881
rtibia 4.75027
rfoot -5.00699 -9.20924
rtoes 7.45
lfemur -33.8898 -3.87222 -13.8871
ltibia 26.5435
lfoot -5.75559 4.34043
ltoes -4.78696
158
root -0.961755 18.0293 -29.6616 5.6593 -2.40218 -2.92031
lowerback 5.60207 3.81273 -0.574299
upperback -1.29827 5.18853 3.03285
thorax -4.81982 2.63757 2.95349
lowerneck -14.3909 -6.03913 -15.5994
upperneck 24.9978 -6.62744 7.94345
head 11.3247 -3.56215 4.59501
rclavicle -6.2965e-014 -2.06736e-014
rhumerus -36.1787 -14.0843 -74.4819
rradius 25.7989
rwrist -9.47982
rhand -10.6036 23.2976
rfingers 7.12502
rthumb 15.4023 -6.1086
lclavicle -6.2965e-014 -2.06736e-014
lhumerus -43.5966 20.5178 72.1949
lradius 23.6198
lwrist -13.9293
lhand 0.952929 31.1005
lfingers 7.12502
lthumb 26.5028 59.2669
rfemur 20.3245 3.88407 24.641
rtibia 8.38557
rfoot -5.02483 -9.30366
rtoes 6.75262
lfemur -33.4017 -3.47685 -14.1966
ltibia 26.6798
lfoot -5.8532 3.80959
ltoes -4.07668
159
root -0.931967 18.0491 -29.4977 5.51639 -2.19197 -2.7019
lowerback 5.92825 3.74387 -0.911482
upperback -1.45288 5.08158 3.07529
thorax -5.19421 2.59842 3.17035
lowerneck -14.4188 -5.98672 -15.5799
upperneck 25.1441 -6.53072 7.84004
head 11.3684 -3.5312 4.57071
rclavicle -6.11263e-015 -1.66979e-014
rhumerus -36.5093 -13.6963 -74.4118
rradius 26.2237
rwrist -9.92083
rhand -10.6522 23.1969
rfingers 7.12502
rthumb 15.3555 -6.21294
lclavicle -6.11263e-015 -1.66979e-014
lhumerus -43.8857 20.2548 72.3943
lradius 24.0524
lwrist -13.5719
lhand 1.02884 31.3133
lfingers 7.12502
lthumb 26.5754 59.4687
rfemur 19.2592 3.6538 24.3123
rtibia 11.3921
rfoot -4.64059 -9.35558
rtoes 6.652
lfemur -32.7648 -3.24393 -14.7029
ltibia 26.7667
lfoot -5.9533 3.64749
ltoes -2.98319
160
root -0.908822 18.0675 -29.347 5.34178 -1.83074 -2.45595
lowerback 6.07992 3.66077 -1.21313
upperback -1.37144 4.94402 3.04169
thorax -5.20867 2.53806 3.3123
lowerneck -14.6425 -6.01748 -15.4886
upperneck 25.1724 -6.55389 7.80838
head 11.4216 -3.53252 4.53718
rclavicle 1.67476e-014 -1.27222e-014
rhumerus -36.5724 -13.3298 -74.6257
rradius 26.9134
rwrist -10.7527
rhand -10.6976 23.0401
rfingers 7.12502
rthumb 15.3118 -6.37305
lclavicle 1.67476e-014 -1.27222e-014
lhumerus -43.6538 19.9102 72.7344
lradius 24.4592
lwrist -13.1841
lhand 1.22698 31.7388
lfingers 7.12502
lthumb 26.7651 59.8653
rfemur 18.3005 3.32308 24.0358
rtibia 14.2004
rfoot -4.01752 -9.5005
rtoes 8.30337
lfemur -32.1096 -2.93554 -15.2439
ltibia 26.7796
lfoot -5.91414 3.33149
ltoes -3.51295
